# xmcd
#
# Track frame offsets:
#	150
#	26104
#	43529
#	66869
#	84302
#	97532
#	115348
#	131709
#	147031
#	163537
#	176577
#	192410
#	208176
#	225310
#	246412
#	267892
#	288928
#
# Disc length: 4147 seconds
# Revision: 1
# Processed by: cddbd v1.5.2PL0 Copyright (c) Steve Scherf et al.
# Submitted via: dBpowerAMP V12.0
#
DISCID=ea103111
DTITLE=Marvin Gaye - You're The Man
DYEAR=1972
DGENRE=R&B/Soul
TTITLE0=You're The Man
TTITLE1=The World Is Rated X
TTITLE2=Piece Of Clay
TTITLE3=Where Are We Going?
TTITLE4=I'm Gonna Give You Respect
TTITLE5=Try It, You'll Like It
TTITLE6=You Are That Special One
TTITLE7=We Can Make It Baby
TTITLE8=My Last Chance
TTITLE9=Symphony
TTITLE10=I'd Give My Life For You
TTITLE11=Woman Of The World
TTITLE12=Christmas In The City [Instrumental]
TTITLE13=You're The Man [Version 2]
TTITLE14=I Want To Come Home For Christmas
TTITLE15=I'm Going Home (Move)
TTITLE16=Checking Out (Double Clutch)
EXTD=
EXTT0=
EXTT1=
EXTT2=
EXTT3=
EXTT4=
EXTT5=
EXTT6=
EXTT7=
EXTT8=
EXTT9=
EXTT10=
EXTT11=
EXTT12=
EXTT13=
EXTT14=
EXTT15=
EXTT16=
PLAYORDER=
